<svg width="19" height="20" viewBox="0 0 19 20" fill="none" xmlns="http://www.w3.org/2000/svg">
<path id="Vector" d="M17.1 0H1.9C0.855 0 0 0.867843 0 1.92854V17.3569C0 18.4272 0.855 19.2854 1.9 19.2854H17.1C18.1545 19.2854 19 18.4272 19 17.3569V1.92854C19 0.867843 18.1545 0 17.1 0ZM1.9 3.85708L3.8 1.92854H8.455L1.9 8.582V3.85708ZM1.9 11.282L11.115 1.92854H15.77L1.9 16.0069V11.282ZM17.1 15.4283L15.2 17.3569H10.545L17.1 10.7034V15.4283ZM17.1 8.00344L7.885 17.3569H3.23L17.1 3.27852V8.00344Z" fill="#48435C"/>
</svg>
