<svg width="17" height="20" viewBox="0 0 17 20" fill="none" xmlns="http://www.w3.org/2000/svg">
<path id="Vector" d="M5.66667 19.2854H13.2222V16.8747C15.4983 15.303 17 12.6512 17 9.6427V1.92854C17 1.41706 16.801 0.926528 16.4468 0.564856C16.0925 0.203185 15.6121 0 15.1111 0H11.3333C10.285 0 9.44444 0.867843 9.44444 1.92854V9.6427H0C0 12.6223 1.88889 15.4283 5.66667 16.8747V19.2854ZM2.16278 11.5712H14.8372C14.2989 13.413 13.005 14.9462 11.3333 15.7465V17.3569H7.55556V15.7465C5.66667 15.4283 2.70111 13.413 2.16278 11.5712ZM11.3333 1.92854H15.1111V9.6427H11.3333V1.92854ZM12.2778 2.89281V5.78562H14.1667V2.89281H12.2778Z" fill="#48435C"/>
</svg>
