<svg width="20" height="18" viewBox="0 0 20 18" fill="none" xmlns="http://www.w3.org/2000/svg">
<path id="Vector" d="M17.7778 6.78598V3.3059C17.7778 2.69058 17.5437 2.10046 17.1269 1.66537C16.7102 1.23027 16.1449 0.98584 15.5556 0.98584H4.44444C3.85507 0.98584 3.28984 1.23027 2.8731 1.66537C2.45635 2.10046 2.22222 2.69058 2.22222 3.3059V6.78598C1.63285 6.78598 1.06762 7.03041 0.650874 7.46551C0.234126 7.9006 0 8.49072 0 9.10603V14.9062H1.47778L2.22222 17.2262H3.33333L4.07778 14.9062H15.9222L16.6667 17.2262H17.7778L18.5222 14.9062H20V9.10603C20 8.49072 19.7659 7.9006 19.3491 7.46551C18.9324 7.03041 18.3671 6.78598 17.7778 6.78598ZM4.44444 3.3059H15.5556V6.78598H4.44444V3.3059ZM17.7778 12.5861H2.22222V9.10603H17.7778V12.5861Z" fill="#48435C"/>
</svg>
