<svg width="19" height="18" viewBox="0 0 19 18" fill="none" xmlns="http://www.w3.org/2000/svg">
<path id="Vector" d="M9.595 14.495L9.5 14.5882L9.3955 14.495C4.883 10.4774 1.9 7.82079 1.9 5.12686C1.9 3.26254 3.325 1.86431 5.225 1.86431C6.688 1.86431 8.113 2.79647 8.6165 4.0642H10.3835C10.887 2.79647 12.312 1.86431 13.775 1.86431C15.675 1.86431 17.1 3.26254 17.1 5.12686C17.1 7.82079 14.117 10.4774 9.595 14.495ZM13.775 0C12.122 0 10.5355 0.755046 9.5 1.93888C8.4645 0.755046 6.878 0 5.225 0C2.299 0 0 2.2465 0 5.12686C0 8.64108 3.23 11.5214 8.1225 15.8746L9.5 17.1051L10.8775 15.8746C15.77 11.5214 19 8.64108 19 5.12686C19 2.2465 16.701 0 13.775 0Z" fill="white"/>
</svg>
