<svg width="18" height="18" viewBox="0 0 18 18" fill="none" xmlns="http://www.w3.org/2000/svg">
<path id="Vector" d="M12.9774 11H12.1961L11.9192 10.73C12.8884 9.59 13.4719 8.11 13.4719 6.5C13.4719 2.91 10.5939 0 7.04344 0C3.49296 0 0.61499 2.91 0.61499 6.5C0.61499 10.09 3.49296 13 7.04344 13C8.63571 13 10.0994 12.41 11.2269 11.43L11.4939 11.71V12.5L16.4389 17.49L17.9125 16L12.9774 11ZM7.04344 11C4.58085 11 2.59297 8.99 2.59297 6.5C2.59297 4.01 4.58085 2 7.04344 2C9.50603 2 11.4939 4.01 11.4939 6.5C11.4939 8.99 9.50603 11 7.04344 11Z" fill="#48435C"/>
</svg>
