<svg width="72" height="60" viewBox="0 0 72 60" fill="none" xmlns="http://www.w3.org/2000/svg">
<path d="M8.66442 41.6347C10.3025 41.6347 11.8768 40.8492 12.3547 39.714V36.7181C11.8768 35.5829 10.3025 34.7974 8.66442 34.7974C6.373 34.7974 4.50861 36.3311 4.50861 38.2162C4.50861 40.1012 6.373 41.6347 8.66442 41.6347Z" fill="#61E786"/>
<path d="M59.6696 39.7142C60.3864 40.8494 61.8013 41.6349 63.4392 41.6349C65.7309 41.6349 67.6151 40.1012 67.6151 38.2162C67.6151 36.3311 65.7208 34.7974 63.4294 34.7974C61.7916 34.7974 60.3867 35.5829 59.6698 36.7181V39.7142H59.6696Z" fill="#61E786"/>
<path d="M55.8462 9.0459H53.2176V49.3444H55.8462V9.0459Z" fill="#9792E3"/>
<path d="M18.5677 9.0459H16.1781V49.3444H18.5677V9.0459Z" fill="#9792E3"/>
<path d="M22.3913 49.3448H49.3942V4.13184H22.3913V49.3448ZM30.0381 41.6782C30.0381 42.5467 29.1822 43.2509 28.1264 43.2509C27.0707 43.2509 26.2147 42.5467 26.2147 41.6782V38.3364C26.2147 37.4679 27.0707 36.7638 28.1264 36.7638C29.1822 36.7638 30.0381 37.4679 30.0381 38.3364V41.6782ZM30.0381 31.8493C30.0381 32.7178 29.1822 33.422 28.1264 33.422C27.0707 33.422 26.2147 32.7178 26.2147 31.8493V28.5075C26.2147 27.639 27.0707 26.9349 28.1264 26.9349C29.1822 26.9349 30.0381 27.639 30.0381 28.5075V31.8493ZM30.0381 22.0204C30.0381 22.8889 29.1822 23.5931 28.1264 23.5931C27.0707 23.5931 26.2147 22.8889 26.2147 22.0204V18.6786C26.2147 17.8101 27.0707 17.106 28.1264 17.106C29.1822 17.106 30.0381 17.8101 30.0381 18.6786V22.0204ZM30.0381 12.3881C30.0381 13.2566 29.1822 13.9607 28.1264 13.9607C27.0707 13.9607 26.2147 13.2566 26.2147 12.3881V9.04629C26.2147 8.17781 27.0707 7.47366 28.1264 7.47366C29.1822 7.47366 30.0381 8.17781 30.0381 9.04629V12.3881ZM37.9239 41.6782C37.9239 42.5467 37.068 43.2509 36.0122 43.2509C34.9565 43.2509 34.1005 42.5467 34.1005 41.6782V38.3364C34.1005 37.4679 34.9565 36.7638 36.0122 36.7638C37.068 36.7638 37.9239 37.4679 37.9239 38.3364V41.6782ZM37.9239 31.8493C37.9239 32.7178 37.068 33.422 36.0122 33.422C34.9565 33.422 34.1005 32.7178 34.1005 31.8493V28.5075C34.1005 27.639 34.9565 26.9349 36.0122 26.9349C37.068 26.9349 37.9239 27.639 37.9239 28.5075V31.8493ZM37.9239 22.0204C37.9239 22.8889 37.068 23.5931 36.0122 23.5931C34.9565 23.5931 34.1005 22.8889 34.1005 22.0204V18.6786C34.1005 17.8101 34.9565 17.106 36.0122 17.106C37.068 17.106 37.9239 17.8101 37.9239 18.6786V22.0204ZM37.9239 12.3881C37.9239 13.2566 37.068 13.9607 36.0122 13.9607C34.9565 13.9607 34.1005 13.2566 34.1005 12.3881V9.04629C34.1005 8.17781 34.9565 7.47366 36.0122 7.47366C37.068 7.47366 37.9239 8.17781 37.9239 9.04629V12.3881ZM45.8097 41.6782C45.8097 42.5467 44.9538 43.2509 43.898 43.2509C42.8423 43.2509 41.9863 42.5467 41.9863 41.6782V38.3364C41.9863 37.4679 42.8423 36.7638 43.898 36.7638C44.9538 36.7638 45.8097 37.4679 45.8097 38.3364V41.6782ZM45.8097 31.8493C45.8097 32.7178 44.9538 33.422 43.898 33.422C42.8423 33.422 41.9863 32.7178 41.9863 31.8493V28.5075C41.9863 27.639 42.8423 26.9349 43.898 26.9349C44.9538 26.9349 45.8097 27.639 45.8097 28.5075V31.8493ZM45.8097 22.0204C45.8097 22.8889 44.9538 23.5931 43.898 23.5931C42.8423 23.5931 41.9863 22.8889 41.9863 22.0204V18.6786C41.9863 17.8101 42.8423 17.106 43.898 17.106C44.9538 17.106 45.8097 17.8101 45.8097 18.6786V22.0204ZM45.8097 9.04629V12.3881C45.8097 13.2566 44.9538 13.9607 43.898 13.9607C42.8423 13.9607 41.9863 13.2566 41.9863 12.3881V9.04629C41.9863 8.17781 42.8423 7.47366 43.898 7.47366C44.9538 7.47366 45.8097 8.17781 45.8097 9.04629Z" fill="white"/>
<path d="M65.4842 52.4897H6.46018C5.27421 52.4897 4.30951 53.2833 4.30951 54.259C4.30951 55.2346 5.27421 56.0282 6.46018 56.0282H65.4842C66.6702 56.0282 67.6349 55.2346 67.6349 54.259C67.6349 53.2833 66.6702 52.4897 65.4842 52.4897Z" fill="#61E786"/>
<path d="M65.4842 49.3446H65.1657V44.6161C68.7501 43.9528 71.4186 41.3362 71.4186 38.2163C71.4186 34.5969 67.8191 31.6521 63.4193 31.6521C62.0725 31.6521 60.8643 31.9291 59.6695 32.4158V7.47341C59.6695 6.60493 58.8931 5.90078 57.8374 5.90078H53.2175V2.55895C53.2175 1.69047 52.4411 0.986328 51.3853 0.986328H20.559C19.5033 0.986328 18.5677 1.69047 18.5677 2.55895V5.90078H14.346C13.2902 5.90078 12.3547 6.60493 12.3547 7.47341V32.4162C11.3988 31.9293 10.0114 31.6523 8.66438 31.6523C4.26458 31.6523 0.665307 34.5971 0.665307 38.2165C0.665307 41.2666 3.27407 43.8368 6.61956 44.5703V49.3446H6.46018C3.16606 49.3446 0.486084 51.5492 0.486084 54.259C0.486084 56.9688 3.16606 59.1735 6.46018 59.1735H65.4842C68.7783 59.1735 71.4583 56.9688 71.4583 54.259C71.4583 51.5492 68.7783 49.3446 65.4842 49.3446ZM65.4842 56.0282H6.46018C5.2742 56.0282 4.3095 55.2346 4.3095 54.259C4.3095 53.2834 5.2742 52.4898 6.46018 52.4898H65.4842C66.6702 52.4898 67.6349 53.2834 67.6349 54.259C67.6349 55.2346 66.6702 56.0282 65.4842 56.0282ZM8.66438 34.7976C10.3025 34.7976 11.8768 35.5831 12.3547 36.7183V39.714C11.8768 40.8492 10.3025 41.6348 8.66438 41.6348C6.37295 41.6348 4.50856 40.1011 4.50856 38.2161C4.50856 36.3313 6.37295 34.7976 8.66438 34.7976ZM49.3941 4.13158V49.3446H22.3912V4.13158H49.3941ZM63.4392 34.7976C65.7308 34.7976 67.615 36.3313 67.615 38.2165C67.615 40.1015 65.7208 41.6352 63.4294 41.6352C61.7915 41.6352 60.3866 40.8496 59.6697 39.7144V36.7183C60.3864 35.5831 61.8013 34.7976 63.4392 34.7976ZM59.6695 49.3446V44.0165C60.3864 44.2461 60.8643 44.4289 61.3422 44.5579V49.3446H59.6695ZM55.8461 49.3446H53.2175V9.04603H55.8461V49.3446ZM18.5677 49.3446H16.1781V9.04603H18.5677V49.3446ZM10.443 44.6062C11.1599 44.4765 11.8768 44.2772 12.3547 44.0165V49.3446H10.443V44.6062Z" fill="#48435C"/>
<path d="M28.1264 26.9346C27.0706 26.9346 26.2147 27.6387 26.2147 28.5072V31.849C26.2147 32.7175 27.0706 33.4216 28.1264 33.4216C29.1821 33.4216 30.0381 32.7175 30.0381 31.849V28.5072C30.0381 27.6387 29.1821 26.9346 28.1264 26.9346Z" fill="#48435C"/>
<path d="M28.1264 36.7637C27.0706 36.7637 26.2147 37.4678 26.2147 38.3363V41.6781C26.2147 42.5466 27.0706 43.2508 28.1264 43.2508C29.1821 43.2508 30.0381 42.5466 30.0381 41.6781V38.3363C30.0381 37.4678 29.1821 36.7637 28.1264 36.7637Z" fill="#48435C"/>
<path d="M28.1264 17.1055C27.0706 17.1055 26.2147 17.8096 26.2147 18.6781V22.0199C26.2147 22.8884 27.0706 23.5926 28.1264 23.5926C29.1821 23.5926 30.0381 22.8884 30.0381 22.0199V18.6781C30.0381 17.8096 29.1821 17.1055 28.1264 17.1055Z" fill="#48435C"/>
<path d="M28.1264 7.47363C27.0706 7.47363 26.2147 8.17777 26.2147 9.04625V12.3881C26.2147 13.2566 27.0706 13.9607 28.1264 13.9607C29.1821 13.9607 30.0381 13.2566 30.0381 12.3881V9.04625C30.0381 8.17777 29.1821 7.47363 28.1264 7.47363Z" fill="#48435C"/>
<path d="M36.0121 26.9346C34.9564 26.9346 34.1004 27.6387 34.1004 28.5072V31.849C34.1004 32.7175 34.9564 33.4216 36.0121 33.4216C37.0679 33.4216 37.9238 32.7175 37.9238 31.849V28.5072C37.9238 27.6387 37.0679 26.9346 36.0121 26.9346Z" fill="#48435C"/>
<path d="M36.0121 36.7637C34.9564 36.7637 34.1004 37.4678 34.1004 38.3363V41.6781C34.1004 42.5466 34.9564 43.2508 36.0121 43.2508C37.0679 43.2508 37.9238 42.5466 37.9238 41.6781V38.3363C37.9238 37.4678 37.0679 36.7637 36.0121 36.7637Z" fill="#48435C"/>
<path d="M36.0121 17.1055C34.9564 17.1055 34.1004 17.8096 34.1004 18.6781V22.0199C34.1004 22.8884 34.9564 23.5926 36.0121 23.5926C37.0679 23.5926 37.9238 22.8884 37.9238 22.0199V18.6781C37.9238 17.8096 37.0679 17.1055 36.0121 17.1055Z" fill="#48435C"/>
<path d="M36.0121 7.47363C34.9564 7.47363 34.1004 8.17777 34.1004 9.04625V12.3881C34.1004 13.2566 34.9564 13.9607 36.0121 13.9607C37.0679 13.9607 37.9238 13.2566 37.9238 12.3881V9.04625C37.9238 8.17777 37.0679 7.47363 36.0121 7.47363Z" fill="#48435C"/>
<path d="M43.898 26.9346C42.8422 26.9346 41.9863 27.6387 41.9863 28.5072V31.849C41.9863 32.7175 42.8422 33.4216 43.898 33.4216C44.9537 33.4216 45.8097 32.7175 45.8097 31.849V28.5072C45.8097 27.6387 44.9537 26.9346 43.898 26.9346Z" fill="#48435C"/>
<path d="M43.898 36.7637C42.8422 36.7637 41.9863 37.4678 41.9863 38.3363V41.6781C41.9863 42.5466 42.8422 43.2508 43.898 43.2508C44.9537 43.2508 45.8097 42.5466 45.8097 41.6781V38.3363C45.8097 37.4678 44.9537 36.7637 43.898 36.7637Z" fill="#48435C"/>
<path d="M43.898 17.1055C42.8422 17.1055 41.9863 17.8096 41.9863 18.6781V22.0199C41.9863 22.8884 42.8422 23.5926 43.898 23.5926C44.9537 23.5926 45.8097 22.8884 45.8097 22.0199V18.6781C45.8097 17.8096 44.9537 17.1055 43.898 17.1055Z" fill="#48435C"/>
<path d="M41.9863 9.04625V12.3881C41.9863 13.2566 42.8422 13.9607 43.898 13.9607C44.9537 13.9607 45.8097 13.2566 45.8097 12.3881V9.04625C45.8097 8.17777 44.9537 7.47363 43.898 7.47363C42.8422 7.47363 41.9863 8.17777 41.9863 9.04625Z" fill="#48435C"/>
</svg>
